<svg width="96" height="87" viewBox="0 0 96 87" fill="none" xmlns="http://www.w3.org/2000/svg">
<path d="M87.4624 68.3818H83.5813V70.81H87.4624V68.3818Z" fill="white" stroke="#263238" stroke-linecap="round" stroke-linejoin="round"/>
<path d="M50.9409 77.8712C52.2367 77.8712 53.2871 76.8208 53.2871 75.525C53.2871 74.2293 52.2367 73.1788 50.9409 73.1788C49.6452 73.1788 48.5947 74.2293 48.5947 75.525C48.5947 76.8208 49.6452 77.8712 50.9409 77.8712Z" fill="#263238" stroke="#263238" stroke-linecap="round" stroke-linejoin="round"/>
<path d="M89.5486 36.6912H88.1635V75.5787H89.5486V36.6912Z" fill="#263238" stroke="#263238" stroke-linecap="round" stroke-linejoin="round"/>
<path d="M88.8109 50.2935L85.5347 47.6872C84.1412 46.5768 83.0959 45.0896 82.5232 43.4023C81.9504 41.7151 81.8742 39.8989 82.3037 38.1696C82.43 37.6648 82.7209 37.2165 83.1304 36.8956C83.54 36.5746 84.0448 36.3992 84.5651 36.3972H93.0453C93.5659 36.3983 94.0712 36.5733 94.4809 36.8944C94.8906 37.2155 95.1813 37.6643 95.3067 38.1696C95.7369 39.8986 95.6613 41.7147 95.089 43.402C94.5167 45.0893 93.4718 46.5767 92.0786 47.6872L88.8109 50.2935ZM84.5707 37.723C84.3443 37.7222 84.1241 37.7975 83.9457 37.937C83.7673 38.0765 83.641 38.2719 83.587 38.4918C83.2177 39.9738 83.2822 41.5308 83.7728 42.9772C84.2635 44.4236 85.1596 45.6984 86.3544 46.6498L88.8052 48.6003L91.2588 46.6498C92.4541 45.6987 93.3509 44.4241 93.8426 42.9778C94.3342 41.5315 94.3999 39.9744 94.0319 38.4918C93.9775 38.2721 93.851 38.077 93.6727 37.9376C93.4944 37.7982 93.2745 37.7227 93.0482 37.723H84.5707Z" fill="#263238"/>
<path d="M80.6782 69.5973H37.788V74.5893H80.6782V69.5973Z" fill="white"/>
<mask id="mask0_250_62239" style="mask-type:luminance" maskUnits="userSpaceOnUse" x="37" y="69" width="44" height="6">
<path d="M80.6782 69.5973H37.788V74.5893H80.6782V69.5973Z" fill="white"/>
</mask>
<g mask="url(#mask0_250_62239)">
<path opacity="0.28" d="M80.6782 69.5973H37.788V74.5893H80.6782V69.5973Z" fill="black" stroke="#263238" stroke-linecap="round" stroke-linejoin="round"/>
</g>
<path d="M80.6782 69.5973H37.788V74.5893H80.6782V69.5973Z" stroke="#263238" stroke-linecap="round" stroke-linejoin="round"/>
<path d="M42.5934 69.5973H37.788V74.5893H42.5934V69.5973Z" stroke="#263238" stroke-linecap="round" stroke-linejoin="round"/>
<path d="M80.6755 69.5973H75.87V74.5893H80.6755V69.5973Z" stroke="#263238" stroke-linecap="round" stroke-linejoin="round"/>
<path d="M61.6344 69.5973H56.829V74.5893H61.6344V69.5973Z" stroke="#263238" stroke-linecap="round" stroke-linejoin="round"/>
<path d="M80.6782 74.5893H83.635L87.3324 60.5376H84.3756L80.6782 74.5893Z" fill="white" stroke="#263238" stroke-linecap="round" stroke-linejoin="round"/>
<path d="M90.798 66.4541H86.9169V72.7408H90.798V66.4541Z" fill="white" stroke="#263238" stroke-linecap="round" stroke-linejoin="round"/>
<path d="M87.9063 77.8712C87.6862 77.8676 87.4763 77.7785 87.3207 77.6229C87.165 77.4673 87.076 77.2573 87.0724 77.0373V73.9081C87.076 73.6881 87.165 73.4781 87.3207 73.3225C87.4763 73.1669 87.6862 73.0779 87.9063 73.0742C88.1263 73.0779 88.3363 73.1669 88.4919 73.3225C88.6475 73.4781 88.7365 73.6881 88.7402 73.9081V77.0458C88.7344 77.2643 88.6444 77.4722 88.489 77.626C88.3336 77.7798 88.1249 77.8676 87.9063 77.8712Z" fill="#263238"/>
<path d="M89.8878 77.8712C89.6678 77.8676 89.4578 77.7785 89.3022 77.6229C89.1466 77.4673 89.0576 77.2573 89.054 77.0373V73.9081C89.0576 73.6881 89.1466 73.4781 89.3022 73.3225C89.4578 73.1669 89.6678 73.0779 89.8878 73.0742C90.1103 73.0742 90.3239 73.1616 90.4825 73.3176C90.6412 73.4736 90.7322 73.6857 90.7359 73.9081V77.0458C90.73 77.2668 90.638 77.4767 90.4796 77.6309C90.3212 77.785 90.1089 77.8713 89.8878 77.8712Z" fill="#263238"/>
<path d="M20.4204 86.0375C31.6983 86.0375 40.8408 84.9263 40.8408 83.5556C40.8408 82.1849 31.6983 81.0737 20.4204 81.0737C9.14253 81.0737 0 82.1849 0 83.5556C0 84.9263 9.14253 86.0375 20.4204 86.0375Z" fill="#4986CC"/>
<path opacity="0.5" d="M20.4204 86.0375C31.6983 86.0375 40.8408 84.9263 40.8408 83.5556C40.8408 82.1849 31.6983 81.0737 20.4204 81.0737C9.14253 81.0737 0 82.1849 0 83.5556C0 84.9263 9.14253 86.0375 20.4204 86.0375Z" fill="white"/>
<path d="M62.6774 83.5472C62.6774 84.2312 58.1179 84.7853 52.5011 84.7853C46.8844 84.7853 42.3248 84.2199 42.3248 83.5472C42.3248 82.8744 46.8815 82.3119 52.5011 82.3119C58.1207 82.3119 62.6774 82.8744 62.6774 83.5472Z" fill="#4986CC"/>
<path opacity="0.5" d="M62.6774 83.5472C62.6774 84.2312 58.1179 84.7853 52.5011 84.7853C46.8844 84.7853 42.3248 84.2199 42.3248 83.5472C42.3248 82.8744 46.8815 82.3119 52.5011 82.3119C58.1207 82.3119 62.6774 82.8744 62.6774 83.5472Z" fill="white"/>
<path d="M24.4937 1.79493C24.4937 1.79493 22.9136 0.553985 21.1016 1.17304C19.2897 1.7921 17.9159 4.81106 17.4269 7.26468C16.9378 9.71829 15.058 11.5783 15.5103 14.4559C15.9626 17.3335 19.2331 17.783 23.1821 18.207C27.1311 18.631 29.2737 18.1505 31.1337 15.5555C32.9937 12.9606 32.2051 9.8031 31.1055 7.01027C30.0059 4.21745 28.1741 1.62532 26.6505 1.14478C25.1269 0.664229 24.4937 1.79493 24.4937 1.79493Z" fill="#263238" stroke="#263238" stroke-linecap="round" stroke-linejoin="round"/>
<path d="M17.9639 16.5532C18.2305 16.6731 18.5078 16.7678 18.7921 16.8359" stroke="white" stroke-linecap="round" stroke-linejoin="round"/>
<path d="M24.098 3.80469C23.454 5.24361 22.6377 6.59905 21.667 7.84128C20.0501 9.91894 16.4743 11.8807 16.2453 14.0601C16.2085 14.3519 16.2341 14.6482 16.3204 14.9294C16.4066 15.2105 16.5516 15.4702 16.7457 15.6912" stroke="white" stroke-linecap="round" stroke-linejoin="round"/>
<path d="M30.6589 14.2269C30.5421 14.5005 30.3921 14.7588 30.2123 14.9958" stroke="white" stroke-linecap="round" stroke-linejoin="round"/>
<path d="M29.2992 8.7655C29.2992 8.7655 31.1168 10.8629 30.9415 13.1017" stroke="white" stroke-linecap="round" stroke-linejoin="round"/>
<path d="M23.7531 2.64853C23.0446 2.57642 22.3293 2.67507 21.6668 2.93622C21.0043 3.19736 20.4141 3.61341 19.9454 4.14953C19.8804 4.22302 19.8211 4.29652 19.7645 4.37001" stroke="white" stroke-linecap="round" stroke-linejoin="round"/>
<path d="M13.3252 55.9298L12.9719 61.3684C12.9719 61.3684 11.468 68.6643 10.9931 71.6719C10.5182 74.6796 9.6476 79.2533 9.4893 79.2533C9.331 79.2533 6.73605 80.8221 5.90499 82.1026C5.07393 83.3831 6.1283 83.9259 7.28162 83.516C8.43493 83.1061 10.0009 81.9471 10.5126 80.5705C11.0242 79.1939 11.2786 78.6823 11.3126 78.4589C11.3465 78.2356 16.8162 63.5507 17.359 61.9818C17.9017 60.413 19.055 55.8054 19.055 55.8054L21.7432 46.6863C21.7432 46.6863 24.6209 56.0626 24.6548 56.4782C24.6887 56.8937 27.6285 80.8588 27.7642 81.7549C27.8999 82.651 27.8603 83.2898 28.4031 83.4821C28.9458 83.6743 30.2263 83.6743 30.8991 83.6743C31.5718 83.6743 33.9067 84.0276 35.0572 83.7393C36.2077 83.451 36.3377 83.2588 35.5378 82.6821C34.7378 82.1054 30.2941 81.738 29.8843 80.0589C29.8503 79.9317 29.8193 55.2627 29.8193 55.2627C29.8193 55.2627 29.4348 47.1047 28.796 44.8037H14.0121L13.3252 55.9298Z" fill="white" stroke="#263238" stroke-linecap="round" stroke-linejoin="round"/>
<path d="M7.27882 83.5104C8.42931 83.092 9.99815 81.9415 10.5098 80.5649L10.6172 80.2822C9.96423 80.9776 8.92116 81.9443 8.92116 81.9443C8.85723 81.6164 8.71464 81.3089 8.50563 81.0483C8.41443 80.9477 8.29762 80.8737 8.16767 80.8344C8.03771 80.7951 7.89952 80.7918 7.76785 80.8249L8.89854 79.5812C8.05052 80.107 6.52408 81.1811 5.92481 82.1055C5.0683 83.3803 6.11986 83.9259 7.27882 83.5104Z" fill="#263238" stroke="#263238" stroke-linecap="round" stroke-linejoin="round"/>
<path d="M35.518 82.6766C34.9696 82.2836 32.7167 81.9868 31.2128 81.2999C31.1508 81.3527 31.1023 81.4196 31.0715 81.495C30.9761 81.7659 30.9014 82.0437 30.8482 82.326L27.7388 81.6617V81.7494C27.866 82.6455 27.8349 83.2843 28.3776 83.4765C28.9204 83.6687 30.2009 83.6687 30.8736 83.6687C31.5464 83.6687 33.8813 84.0221 35.0318 83.7338C36.1823 83.4454 36.3292 83.2645 35.518 82.6766Z" fill="#263238" stroke="#263238" stroke-linecap="round" stroke-linejoin="round"/>
<path d="M17.6333 31.535C17.6333 31.535 16.1662 32.2106 14.391 35.3992C12.449 38.8789 12.7826 40.8124 12.7543 45.0101C12.726 49.2078 12.6412 56.1758 12.6412 56.1758C12.6412 56.1758 18.012 57.6146 21.8649 57.3884C25.7178 57.1623 30.6052 56.2888 30.6052 56.2888C30.6052 56.2888 29.5621 42.076 28.5756 37.9885C27.5891 33.901 26.9954 32.0523 26.9954 32.0523C25.0887 32.317 23.1567 32.3454 21.243 32.1371C17.9725 31.8177 17.6333 31.535 17.6333 31.535Z" fill="#263238" stroke="#263238" stroke-linecap="round" stroke-linejoin="round"/>
<path d="M23.8125 44.1056C23.9595 44.589 24.0952 45.078 24.2139 45.567" stroke="white" stroke-linecap="round" stroke-linejoin="round"/>
<path d="M20.4062 36.106C21.545 38.2071 22.5221 40.3919 23.3291 42.6414" stroke="white" stroke-linecap="round" stroke-linejoin="round"/>
<path d="M53.6432 28.8326C53.4736 28.7195 50.6949 28.2842 50.6949 28.2842L50.1521 28.0609C50.1521 28.0609 53.516 28.3294 53.5442 28.1881C53.5725 28.0468 53.6856 27.8772 53.4594 27.8489C53.2333 27.8206 48.9055 26.9415 48.9055 26.9415C48.9055 26.9415 50.0052 25.9013 50.1465 25.6751C50.2878 25.449 50.4829 24.9967 50.2567 24.9967C50.0306 24.9967 49.9741 25.138 49.6659 25.3359C49.3578 25.5338 48.1423 26.0143 47.8031 26.2942C47.4639 26.574 46.4519 27.309 46.4519 27.309L34.6983 25.6921C34.6983 25.6921 30.5713 20.6039 29.6752 19.5185C29.0523 18.7941 28.3432 18.1486 27.5636 17.5963C26.6986 17.2147 26.7156 17.8535 26.7156 17.8535L28.5219 25.8815C28.5219 25.8815 33.1945 28.6658 33.4828 28.6658C33.7712 28.6658 46.3954 29.0842 46.3954 29.0842C46.3954 29.0842 47.2434 29.4799 47.7748 29.8163C48.3063 30.1527 51.6956 31.2297 51.6956 31.2297C51.6956 31.2297 51.9217 31.1166 51.6673 30.9187C51.4129 30.7209 49.779 29.9322 49.779 29.9322L53.1711 30.6672C53.1711 30.6672 53.369 30.5258 53.2842 30.3845C53.1994 30.2431 50.1748 29.087 50.1748 29.087L53.5669 29.2566C53.5669 29.2566 53.81 28.9457 53.6432 28.8326Z" fill="white" stroke="#263238" stroke-linecap="round" stroke-linejoin="round"/>
<path d="M33.9888 24.8186C32.7705 23.3176 30.3367 20.3213 29.6752 19.5185C29.0523 18.7941 28.3432 18.1486 27.5636 17.5963C26.6986 17.2147 26.7156 17.8535 26.7156 17.8535L28.5219 25.8815C28.5219 25.8815 30.6306 27.1365 32.1006 27.962L33.9888 24.8186Z" fill="white" stroke="#263238" stroke-linecap="round" stroke-linejoin="round"/>
<path d="M21.4973 16.9095C21.4973 16.9095 19.0437 17.0225 17.5399 18.6875C16.036 20.3524 16.2141 24.0159 16.836 26.2151C17.4579 28.4143 18.2494 29.627 18.077 30.3902C17.9045 31.1534 17.2883 31.405 17.6247 32.1089C17.9611 32.8127 19.9087 33.576 23.3488 33.4629C26.789 33.3498 27.4391 32.6149 27.4674 31.9704C27.4957 31.3259 27.2413 30.786 27.3261 30.3902C27.4109 29.9945 29.8927 27.7953 29.8927 25.3699C29.8927 22.9446 28.8214 22.0994 28.567 20.3496C28.3126 18.5999 28.3974 18.3483 27.3543 17.5851C26.3113 16.8218 22.8796 16.4289 21.4973 16.9095Z" fill="white" stroke="#263238" stroke-linecap="round" stroke-linejoin="round"/>
<path d="M20.3837 25.3162C19.5636 26.0024 18.6534 26.573 17.6785 27.0122" stroke="#263238" stroke-linecap="round" stroke-linejoin="round"/>
<path d="M20.6549 25.5989C20.6549 25.5989 20.0472 27.5606 18.5575 28.6433" stroke="#263238" stroke-linecap="round" stroke-linejoin="round"/>
<path d="M26.7438 18.6847L27.0265 21.3927L25.8392 20.0104L26.7438 18.6847Z" fill="white" stroke="#263238" stroke-linecap="round" stroke-linejoin="round"/>
<path d="M25.1636 21.6188L26.7437 18.6847L25.3049 17.1356L25.1636 21.6188Z" fill="white" stroke="#263238" stroke-linecap="round" stroke-linejoin="round"/>
<path d="M22.1193 12.1152C22.3657 13.0929 22.4882 14.0977 22.4839 15.1059C22.4757 15.7588 22.4095 16.4096 22.286 17.0507L25.1637 21.6187L25.9806 17.3786L26.5177 14.4445C26.5177 14.4445 23.2471 14.2579 22.1193 12.1152Z" fill="white" stroke="#263238" stroke-linecap="round" stroke-linejoin="round"/>
<path d="M24.9941 19.1652L25.1637 21.6188L24.3185 20.293L24.9941 19.1652Z" fill="white" stroke="#263238" stroke-linecap="round" stroke-linejoin="round"/>
<path d="M21.3278 16.9378L23.951 21.6471L24.994 19.1652L22.204 15.3293L21.3278 16.9378Z" fill="white" stroke="#263238" stroke-linecap="round" stroke-linejoin="round"/>
<path d="M67.285 19.1342H43.481V38.667H67.285V19.1342Z" fill="#4986CC"/>
<mask id="mask1_250_62239" style="mask-type:luminance" maskUnits="userSpaceOnUse" x="43" y="19" width="25" height="20">
<path d="M67.285 19.1342H43.481V38.667H67.285V19.1342Z" fill="white"/>
</mask>
<g mask="url(#mask1_250_62239)">
<path opacity="0.2" d="M67.285 19.1342H43.481V38.667H67.285V19.1342Z" fill="black"/>
</g>
<path d="M67.285 19.1342H43.481V38.667H67.285V19.1342Z" stroke="#263238" stroke-linecap="round" stroke-linejoin="round"/>
<path d="M62.2449 19.1342H38.4409V38.667H62.2449V19.1342Z" fill="#4986CC" stroke="#263238" stroke-linecap="round" stroke-linejoin="round"/>
<path d="M71.2058 45.242C70.4425 44.0321 67.2851 38.667 67.2851 38.667H62.2478L64.8399 45.242H71.2058Z" fill="#4986CC"/>
<mask id="mask2_250_62239" style="mask-type:luminance" maskUnits="userSpaceOnUse" x="62" y="38" width="10" height="8">
<path d="M71.2058 45.242C70.4425 44.0321 67.2851 38.667 67.2851 38.667H62.2478L64.8399 45.242H71.2058Z" fill="white"/>
</mask>
<g mask="url(#mask2_250_62239)">
<path opacity="0.2" d="M71.2058 45.242C70.4425 44.0321 67.2851 38.667 67.2851 38.667H62.2478L64.8399 45.242H71.2058Z" fill="black"/>
</g>
<path d="M71.2058 45.242C70.4425 44.0321 67.2851 38.667 67.2851 38.667H62.2478L64.8399 45.242H71.2058Z" stroke="#263238" stroke-linecap="round" stroke-linejoin="round"/>
<path d="M34.5061 45.242C35.2693 44.0321 38.424 38.667 38.424 38.667H43.4641L40.8719 45.242H34.5061Z" fill="#4986CC" stroke="#263238" stroke-linecap="round" stroke-linejoin="round"/>
<path d="M38.4239 38.667L36.2332 45.242H61.0944L62.2477 38.667H38.4239Z" fill="#4986CC" stroke="#263238" stroke-linecap="round" stroke-linejoin="round"/>
<path d="M70.3491 26.2009V32.742" stroke="#263238" stroke-linecap="round" stroke-linejoin="round"/>
<path d="M71.5873 29.0305V34.3335" stroke="#263238" stroke-linecap="round" stroke-linejoin="round"/>
<path d="M35.8827 32.7421V36.8069" stroke="#263238" stroke-linecap="round" stroke-linejoin="round"/>
<path d="M34.8228 35.0402V38.2202" stroke="#263238" stroke-linecap="round" stroke-linejoin="round"/>
<path d="M17.4071 23.931C18.2507 24.8864 19.2297 25.7131 20.313 26.3846C22.0091 27.3994 28.2279 30.9244 28.7169 31.1222C29.2059 31.3201 44.0577 28.8948 44.0577 28.8948C44.0577 28.8948 44.9057 29.2905 45.4399 29.6269C45.9742 29.9633 49.3606 31.0403 49.3606 31.0403C49.3606 31.0403 49.5868 30.9272 49.3324 30.7321C49.078 30.5371 47.4441 29.7428 47.4441 29.7428L50.8362 30.4777C50.8362 30.4777 51.0341 30.3364 50.9493 30.1951C50.8645 30.0537 47.8398 28.8976 47.8398 28.8976L51.2319 29.0672C51.2319 29.0672 51.4864 28.7563 51.3167 28.6432C51.1471 28.5301 47.6731 27.7386 47.6731 27.7386C47.6731 27.7386 51.3676 27.4277 51.3959 27.2863C51.4242 27.145 51.5372 26.9782 51.3111 26.95C51.0849 26.9217 46.4604 26.4694 46.4604 26.4694C46.4604 26.4694 47.6731 25.709 47.8144 25.4829C47.9557 25.2567 48.1536 24.8045 47.9275 24.8045C47.7013 24.8045 47.6448 24.9458 47.3367 25.1437C47.0286 25.3415 45.8131 25.8221 45.4739 26.1019C45.1347 26.3818 44.1199 27.1196 44.1199 27.1196L30.5289 27.1478L22.091 20.4908" fill="white"/>
<path d="M17.4071 23.931C18.2507 24.8864 19.2297 25.7131 20.313 26.3846C22.0091 27.3994 28.2279 30.9244 28.7169 31.1222C29.2059 31.3201 44.0577 28.8948 44.0577 28.8948C44.0577 28.8948 44.9057 29.2905 45.4399 29.6269C45.9742 29.9633 49.3606 31.0403 49.3606 31.0403C49.3606 31.0403 49.5868 30.9272 49.3324 30.7321C49.078 30.5371 47.4441 29.7428 47.4441 29.7428L50.8362 30.4777C50.8362 30.4777 51.0341 30.3364 50.9493 30.1951C50.8645 30.0537 47.8398 28.8976 47.8398 28.8976L51.2319 29.0672C51.2319 29.0672 51.4864 28.7563 51.3167 28.6432C51.1471 28.5301 47.6731 27.7386 47.6731 27.7386C47.6731 27.7386 51.3676 27.4277 51.3959 27.2863C51.4242 27.145 51.5372 26.9782 51.3111 26.95C51.085 26.9217 46.4604 26.4694 46.4604 26.4694C46.4604 26.4694 47.6731 25.709 47.8144 25.4829C47.9557 25.2567 48.1536 24.8045 47.9275 24.8045C47.7013 24.8045 47.6448 24.9458 47.3367 25.1437C47.0286 25.3415 45.8131 25.8221 45.4739 26.1019C45.1347 26.3818 44.1198 27.1196 44.1198 27.1196L30.5289 27.1478L22.091 20.4908" stroke="#263238" stroke-linecap="round" stroke-linejoin="round"/>
<path d="M51.3055 26.9501C51.0822 26.9218 46.4548 26.4695 46.4548 26.4695C46.4548 26.4695 47.6675 25.7091 47.8088 25.483C47.9501 25.2568 48.148 24.8046 47.9219 24.8046C47.6957 24.8046 47.6392 24.9459 47.3311 25.1438C47.023 25.3416 45.8075 25.8222 45.4683 26.102C45.1291 26.3819 44.1143 27.1197 44.1143 27.1197L30.5233 27.1479L29.0166 25.9522C28.4513 26.9444 27.3941 28.8044 26.7072 30.0312C27.7644 30.6192 28.5643 31.0573 28.7254 31.1223C29.206 31.3202 44.0662 28.8949 44.0662 28.8949C44.0662 28.8949 44.9142 29.2906 45.4485 29.627C45.9827 29.9634 49.3692 31.0404 49.3692 31.0404C49.3692 31.0404 49.5953 30.9273 49.3409 30.7323C49.0865 30.5372 47.4526 29.7429 47.4526 29.7429L50.8447 30.4778C50.8447 30.4778 51.0426 30.3365 50.9578 30.1952C50.873 30.0538 47.8484 28.8977 47.8484 28.8977L51.2405 29.0673C51.2405 29.0673 51.4949 28.7564 51.3253 28.6433C51.1557 28.5302 47.6731 27.7387 47.6731 27.7387C47.6731 27.7387 51.3677 27.4278 51.3959 27.2864C51.4242 27.1451 51.5316 26.9783 51.3055 26.9501Z" fill="white" stroke="#263238" stroke-linecap="round" stroke-linejoin="round"/>
<path d="M28.5473 9.74648C28.5955 9.68799 28.6592 9.64422 28.731 9.62016C28.8029 9.5961 28.88 9.59272 28.9537 9.61041C29.0274 9.62809 29.0946 9.66612 29.1477 9.72017C29.2008 9.77422 29.2376 9.84211 29.254 9.91609C29.3012 10.2227 29.2855 10.5358 29.2077 10.8361C29.13 11.1365 28.9918 11.4178 28.8017 11.663C28.4908 11.974 28.2081 12.0588 28.2081 11.663C28.2866 11.0185 28.3999 10.3788 28.5473 9.74648Z" fill="white" stroke="#263238" stroke-linecap="round" stroke-linejoin="round"/>
<path d="M25.0761 4.80542C24.977 6.1811 24.3884 7.47575 23.4168 8.45475C22.5117 9.34477 21.4882 10.1057 20.3752 10.7161C20.3752 10.7161 20.5392 11.6009 20.8728 11.8779C21.2063 12.155 21.8678 12.1012 21.8678 12.1012C22.2523 13.1527 22.8777 14.0995 23.6938 14.8658C25.0196 16.0813 26.5686 15.9711 27.4534 14.1478C28.3382 12.3246 28.782 10.4957 28.6717 9.44411L28.5615 8.39256C28.5615 8.39256 25.6839 6.79545 25.0761 4.80542Z" fill="white" stroke="#263238" stroke-linecap="round" stroke-linejoin="round"/>
<path d="M24.9092 10.2721C25.0497 10.2721 25.1636 10.0696 25.1636 9.81983C25.1636 9.57004 25.0497 9.36755 24.9092 9.36755C24.7687 9.36755 24.6548 9.57004 24.6548 9.81983C24.6548 10.0696 24.7687 10.2721 24.9092 10.2721Z" fill="#263238"/>
<path d="M26.2915 13.882C26.432 13.882 26.5459 13.6795 26.5459 13.4297C26.5459 13.1799 26.432 12.9774 26.2915 12.9774C26.151 12.9774 26.0371 13.1799 26.0371 13.4297C26.0371 13.6795 26.151 13.882 26.2915 13.882Z" fill="#263238"/>
<path d="M27.3629 10.2721C27.5034 10.2721 27.6173 10.0696 27.6173 9.81983C27.6173 9.57004 27.5034 9.36755 27.3629 9.36755C27.2224 9.36755 27.1085 9.57004 27.1085 9.81983C27.1085 10.0696 27.2224 10.2721 27.3629 10.2721Z" fill="#263238"/>
<path d="M26.854 9.33936C26.7569 9.67799 26.728 10.0326 26.7692 10.3824C26.854 10.863 27.2497 11.6799 26.9105 11.8212C26.7557 11.8918 26.5846 11.9186 26.4156 11.8987C26.2466 11.8788 26.0864 11.8129 25.9523 11.7082" stroke="#263238" stroke-linecap="round" stroke-linejoin="round"/>
<path d="M24.1743 9.00293C24.1743 9.00293 24.31 8.13795 25.4435 8.23689" stroke="#263238" stroke-linecap="round" stroke-linejoin="round"/>
<path d="M27.2102 8.50273C27.2102 8.50273 28.2674 7.6547 28.6094 9.20659" stroke="#263238" stroke-linecap="round" stroke-linejoin="round"/>
</svg>
