<svg width="437" height="66" viewBox="0 0 437 66" fill="none" xmlns="http://www.w3.org/2000/svg">
<g filter="url(#filter0_d_3901_220)">
<path d="M177.975 30.1055L192.233 15.8474C193.138 14.9421 193.138 13.5842 192.233 12.679C191.328 11.7737 189.97 11.7737 189.065 12.679L174.807 26.937L160.549 12.679C159.643 11.7737 158.285 11.7737 157.38 12.679C156.475 13.5842 156.475 14.9421 157.38 15.8474L171.638 30.1055L157.38 44.3635C156.927 44.8161 156.701 45.2688 156.701 45.9477C156.701 47.3056 157.606 48.2109 158.964 48.2109C159.643 48.2109 160.096 47.9846 160.549 47.532L174.807 33.2739L189.065 47.532C189.517 47.9846 189.97 48.2109 190.649 48.2109C191.328 48.2109 191.78 47.9846 192.233 47.532C193.138 46.6267 193.138 45.2688 192.233 44.3635L177.975 30.1055Z" fill="white" fill-opacity="0.48"/>
<path d="M4.60938 0L11.1804 0.0029378L11.1752 11.5297C12.3999 9.13192 14.5052 7.93368 17.4909 7.93502C19.3998 7.93587 20.9168 8.54837 22.042 9.77253C23.1917 10.9967 23.766 12.7957 23.765 15.1696L23.7594 27.6508L17.1884 27.6479L17.1934 16.4882C17.1943 14.3346 16.2771 13.2574 14.4416 13.2565C13.4382 13.2561 12.6427 13.5616 12.0551 14.1732C11.4674 14.7848 11.1734 15.6901 11.1728 16.8893L11.168 27.6452L4.59702 27.6423L4.60938 0Z" fill="#3C8FFF"/>
<path d="M32.0862 28.0951C30.2263 28.0942 28.7214 27.6408 27.5716 26.7348C26.2505 25.7308 25.5904 24.2621 25.5912 22.3288C25.5931 18.1439 28.9958 16.053 35.7993 16.056L37.6347 16.0568L37.6349 15.6163C37.6354 14.5884 37.4522 13.8297 37.0853 13.3401C36.7429 12.826 36.0823 12.5687 35.1034 12.5683C33.5616 12.5676 32.6924 13.3259 32.496 14.8431L26.3288 14.8404C26.4766 12.5889 27.3951 10.8517 29.0843 9.62884C30.6511 8.50378 32.7927 7.94186 35.5092 7.94307C38.2502 7.9443 40.3546 8.52035 41.8225 9.67124C43.3882 10.8956 44.1705 12.7437 44.1694 15.2154L44.1639 27.66L37.7764 27.6571L37.7774 25.4178C36.6264 27.2038 34.7293 28.0962 32.0862 28.0951ZM34.3642 23.6542C35.3187 23.6547 36.1019 23.4103 36.7139 22.9211C37.326 22.4074 37.6322 21.7468 37.6326 20.9392L37.6331 19.7645L35.9077 19.7637C34.5617 19.7631 33.5827 19.9218 32.9708 20.2396C32.3833 20.533 32.0894 21.0713 32.089 21.8544C32.0885 23.0536 32.8469 23.6536 34.3642 23.6542Z" fill="#3C8FFF"/>
<path d="M56.1654 28.1058C53.1797 28.1045 50.7817 27.2713 48.9714 25.6064C47.0388 23.8679 46.0732 21.4324 46.0746 18.2999L46.0748 18.0062C46.0762 14.9226 47.0807 12.4513 49.0883 10.5922C50.998 8.83103 53.4089 7.95108 56.3212 7.95238C58.8909 7.95353 60.9953 8.52958 62.6345 9.68055C64.5183 11.0763 65.5452 13.1325 65.7153 15.8491L59.5481 15.8464C59.2553 13.9863 58.2278 13.0559 56.4658 13.0551C54.0185 13.054 52.7941 14.6809 52.7926 17.9358L52.7925 18.2295C52.791 21.6067 54.0506 23.2959 56.5713 23.2971C58.5292 23.2979 59.6432 22.2339 59.9133 20.1048L65.8236 20.1075C65.7246 22.5792 64.8427 24.5367 63.1779 25.9798C61.5375 27.3985 59.2 28.1072 56.1654 28.1058Z" fill="#3C8FFF"/>
<path d="M67.6981 0.0282061L74.2691 0.0311439L74.262 16.0732L79.4414 8.47665L86.2694 8.4797L79.9882 17.1036L86.7747 27.679L79.4328 27.6757L74.2605 19.2669L74.2568 27.6734L67.6858 27.6705L67.6981 0.0282061Z" fill="#3C8FFF"/>
<path d="M24.0533 57.2433C21.0676 57.242 18.6696 56.4088 16.8593 54.7438C14.9267 53.0054 13.9611 50.5699 13.9625 47.4373L13.9627 47.1437C13.964 44.0601 14.9685 41.5887 16.9762 39.7297C18.8858 37.9685 21.2968 37.0885 24.2091 37.0898C26.7788 37.091 28.8832 37.667 30.5224 38.818C32.4062 40.2138 33.4331 42.27 33.6032 44.9866L27.436 44.9838C27.1432 43.1237 26.1157 42.1933 24.3537 42.1925C21.9064 42.1914 20.682 43.8183 20.6805 47.0733L20.6804 47.3669C20.6789 50.7442 21.9385 52.4334 24.4592 52.4345C26.4171 52.4354 27.5311 51.3713 27.8012 49.2423L33.7114 49.2449C33.6125 51.7167 32.7305 53.6741 31.0657 55.1173C29.4254 56.536 27.0879 57.2447 24.0533 57.2433Z" fill="white"/>
<path d="M35.7696 29.1658L42.3039 29.1687L42.2915 56.8109L35.7572 56.808L35.7696 29.1658Z" fill="white"/>
<path d="M51.8636 57.2557C49.9302 57.2549 48.4009 56.6791 47.2757 55.5283C46.0281 54.2797 45.4049 52.4806 45.4059 50.1312L45.4115 37.6133L51.9825 37.6162L51.9774 49.0696C51.9764 51.2232 52.8814 52.3004 54.6924 52.3012C56.8705 52.3022 57.9601 51.0913 57.9612 48.6684L57.9662 37.6189L64.5372 37.6218L64.5286 56.8209L57.9576 56.8179L57.9589 53.8445C56.8076 56.1199 54.7759 57.257 51.8636 57.2557Z" fill="white"/>
<path d="M80.1248 57.2684C77.2614 57.2671 75.2796 56.1282 74.1793 53.8517L74.178 56.8252L67.607 56.8223L67.6194 29.18L74.1904 29.1829L74.1853 40.4895C75.5568 38.2386 77.5519 37.1137 80.1705 37.1149C82.5199 37.1159 84.4284 37.9488 85.896 39.6137C87.486 41.4009 88.2803 43.8853 88.2788 47.0668L88.2787 47.3604C88.2773 50.5419 87.4808 53.0133 85.8893 54.7747C84.4201 56.4382 82.4986 57.2694 80.1248 57.2684ZM77.8143 52.2381C80.335 52.2393 81.5961 50.6124 81.5976 47.3575L81.5977 47.0638C81.5984 45.3996 81.2686 44.1513 80.6082 43.319C79.9478 42.4866 79.018 42.0701 77.8189 42.0696C76.6197 42.0691 75.6773 42.4969 74.9916 43.3532C74.3305 44.2094 73.9996 45.4329 73.9988 47.0237L73.9987 47.3173C73.998 48.9326 74.3278 50.1564 74.9882 50.9887C75.6486 51.8211 76.5907 52.2376 77.8143 52.2381Z" fill="white"/>
<path d="M119.688 30.4962L96.3893 17.3592L96.3907 14.3154L119.701 1.29435L119.697 8.99908L106.187 15.8417L119.691 22.7915L119.688 30.4962Z" fill="white"/>
<path d="M96.3698 56.8344L119.68 43.7183L119.681 40.6744L96.3828 27.6326L96.3794 35.3373L109.883 42.192L96.3732 49.1297L96.3698 56.8344Z" fill="#3C8FFF"/>
<path d="M241.517 57L241.517 -8.56383e-08L229.912 0.113778L229.912 57L241.517 57Z" fill="white"/>
<path d="M264.538 11.6048L264.538 57L276.029 57L276.029 11.6048L293.322 11.6048L293.322 0.113777L247.245 0.113778L247.245 11.6048L264.538 11.6048Z" fill="white"/>
<path d="M410.216 0.113769L395.425 55.8623L395.425 0.113769L372.671 0.113769L357.539 57L369.03 57L383.82 1.25149L383.82 57L406.575 57L421.365 1.25149L421.365 57L432.97 57L432.97 0.113769L410.216 0.113769Z" fill="white"/>
<path fill-rule="evenodd" clip-rule="evenodd" d="M334.232 56.9998L321.268 22.5626L308.205 56.9998L290.846 56.9998L308.077 12.0867L334.484 12.0867L351.586 56.9998L334.232 56.9998ZM321.278 14.8226L336.125 54.2638L347.616 54.2638L332.598 14.8227L321.278 14.8226L309.958 14.8227L294.826 54.2638L306.317 54.2638L321.278 14.8226Z" fill="white"/>
</g>
<defs>
<filter id="filter0_d_3901_220" x="0.597656" y="0" width="436.373" height="65.2683" filterUnits="userSpaceOnUse" color-interpolation-filters="sRGB">
<feFlood flood-opacity="0" result="BackgroundImageFix"/>
<feColorMatrix in="SourceAlpha" type="matrix" values="0 0 0 0 0 0 0 0 0 0 0 0 0 0 0 0 0 0 127 0" result="hardAlpha"/>
<feOffset dy="4"/>
<feGaussianBlur stdDeviation="2"/>
<feComposite in2="hardAlpha" operator="out"/>
<feColorMatrix type="matrix" values="0 0 0 0 0 0 0 0 0 0 0 0 0 0 0 0 0 0 0.25 0"/>
<feBlend mode="normal" in2="BackgroundImageFix" result="effect1_dropShadow_3901_220"/>
<feBlend mode="normal" in="SourceGraphic" in2="effect1_dropShadow_3901_220" result="shape"/>
</filter>
</defs>
</svg>
